<svg id="Ebene_1" data-name="Ebene 1" xmlns="http://www.w3.org/2000/svg" viewBox="0 0 1374.85 297.64"><path d="M528.59,168a2.62,2.62,0,0,1-.19,2.6,2.69,2.69,0,0,1-2.31,1.06h-17a4.84,4.84,0,0,1-4.82-3.28l-1.15-2.69c-.65-1.42-1.58-3.5-2.79-6.26s-3-6.84-5.3-12.23a1.13,1.13,0,0,0-1-.58H435.37a.88.88,0,0,0-1,.58l-9.63,21.18a6.71,6.71,0,0,1-1.64,2.31,4.25,4.25,0,0,1-3,1H403.2a2.75,2.75,0,0,1-2.31-1,2.21,2.21,0,0,1,0-2.5c0,.13.1,0,.29-.48s.84-1.93,1.93-4.43,2.85-6.42,5.29-11.75,5.91-12.87,10.41-22.63S429,106.76,436,91.8s15.47-33.35,25.61-55.18a2.48,2.48,0,0,1,2.32-1.54h1.92a2.61,2.61,0,0,1,1.83.48,6.92,6.92,0,0,1,.87,1.06c.38.77,1.12,2.38,2.21,4.81s2.86,6.33,5.3,11.66S481.88,66,486.32,75.72s10.07,22.12,16.94,37.08S518.58,146.15,528.59,168Zm-44.3-40.84a1.28,1.28,0,0,0,.87-.57c.32-.39.35-.71.1-1L465.8,82.65a1.26,1.26,0,0,0-2.12,0L444.23,125.6a.77.77,0,0,0-.1,1,1.09,1.09,0,0,0,1.06.57Z" style="fill:#333"/><path d="M627.79,151a3.09,3.09,0,0,1,.77,1.92v16a2.75,2.75,0,0,1-.77,1.83,2.48,2.48,0,0,1-1.93.87H550.74a2.45,2.45,0,0,1-1.92-.87,2.7,2.7,0,0,1-.77-1.83V39.51a2.7,2.7,0,0,1,.77-1.83,2.45,2.45,0,0,1,1.92-.87h17.72a3,3,0,0,1,2.7,2.7v109.4a1,1,0,0,0,1.15,1.15h53.55A2.4,2.4,0,0,1,627.79,151Z" style="fill:#333"/><path d="M728.71,151a3.09,3.09,0,0,1,.77,1.92v16a2.75,2.75,0,0,1-.77,1.83,2.45,2.45,0,0,1-1.92.87H651.67a2.47,2.47,0,0,1-1.93-.87,2.75,2.75,0,0,1-.77-1.83V39.51a2.75,2.75,0,0,1,.77-1.83,2.47,2.47,0,0,1,1.93-.87h17.72a3,3,0,0,1,2.7,2.7v109.4a1,1,0,0,0,1.15,1.15h53.55A2.37,2.37,0,0,1,728.71,151Z" style="fill:#333"/><path d="M816.35,157.38a7.33,7.33,0,0,1-1.54-2c-.26-.58-.07-1.44.58-2.6V153l6.93-12.13a3.71,3.71,0,0,1,2.5-1.83,3,3,0,0,1,2.51.48l.38.19a44.59,44.59,0,0,0,4.82,3.18q3.66,2.22,8.47,4.53a84.86,84.86,0,0,0,10,4,30.49,30.49,0,0,0,9.63,1.74A19.39,19.39,0,0,0,874,148.43,14.8,14.8,0,0,0,879.33,137q0-7.71-6.35-13.49T853.91,112.7a113.57,113.57,0,0,1-13.29-6.36,53.81,53.81,0,0,1-11.56-8.57A39.84,39.84,0,0,1,821,86.41a34.33,34.33,0,0,1-3.08-14.93,36.39,36.39,0,0,1,2.6-13.1,34.63,34.63,0,0,1,7.9-12,39.77,39.77,0,0,1,13.39-8.57q8.09-3.27,19.06-2.89a73.31,73.31,0,0,1,13.87,2,82.88,82.88,0,0,1,11.85,3.85,93.11,93.11,0,0,1,9,4.24,48.35,48.35,0,0,1,5.2,3.17,3.41,3.41,0,0,1,1.45,2.32,3.53,3.53,0,0,1-.48,2.69q-1.74,2.7-3.76,5.59c-1.35,1.92-2.6,3.79-3.76,5.58a6.19,6.19,0,0,1-2.5,2.32,2.62,2.62,0,0,1-2.89-.2c-.38-.25-1.61-1-3.66-2.21s-4.49-2.51-7.32-3.85a78.56,78.56,0,0,0-9.15-3.66,28.59,28.59,0,0,0-8.95-1.64,20.82,20.82,0,0,0-7.8,1.35,18.62,18.62,0,0,0-5.69,3.46,14.34,14.34,0,0,0-3.46,4.72,12.57,12.57,0,0,0-1.16,5.11A15.31,15.31,0,0,0,847.46,82q5.87,4.9,17.62,10.69,6.93,3.47,14.06,7.22a70.68,70.68,0,0,1,12.91,8.67,42.33,42.33,0,0,1,9.53,11.55,31.45,31.45,0,0,1,3.76,15.7,35.35,35.35,0,0,1-3.09,14.35,37.84,37.84,0,0,1-8.76,12.42,40.76,40.76,0,0,1-13.77,8.48,44,44,0,0,1-18.3,2.5,75.52,75.52,0,0,1-16.76-2.5,98.34,98.34,0,0,1-13.58-4.72,70.15,70.15,0,0,1-9.72-5.1,35,35,0,0,1-5.2-3.86Z" style="fill:#0069a5"/><path d="M1020.13,37.68a2.75,2.75,0,0,1,.77,1.83v16a3.09,3.09,0,0,1-.77,1.93,2.39,2.39,0,0,1-1.93,1H982.57a1,1,0,0,0-1.16,1.16v109.4a2.7,2.7,0,0,1-.77,1.83,2.45,2.45,0,0,1-1.92.87H961a3,3,0,0,1-2.7-2.7V59.54a1,1,0,0,0-1.15-1.16H921.32a2.65,2.65,0,0,1-2-1,2.89,2.89,0,0,1-.87-1.93v-16a2.58,2.58,0,0,1,.87-1.83,2.77,2.77,0,0,1,2-.87h96.88A2.48,2.48,0,0,1,1020.13,37.68Z" style="fill:#0069a5"/><path d="M1143.4,168a2.62,2.62,0,0,1-.2,2.6,2.68,2.68,0,0,1-2.31,1.06h-17a4.83,4.83,0,0,1-4.81-3.28l-1.16-2.69c-.64-1.42-1.57-3.5-2.79-6.26s-3-6.84-5.3-12.23a1.12,1.12,0,0,0-1-.58h-58.75a.89.89,0,0,0-1,.58l-9.63,21.18a6.45,6.45,0,0,1-1.64,2.31,4.23,4.23,0,0,1-3,1h-17a2.75,2.75,0,0,1-2.31-1,2.18,2.18,0,0,1,0-2.5c0,.13.09,0,.29-.48s.83-1.93,1.92-4.43,2.86-6.42,5.3-11.75,5.9-12.87,10.4-22.63,10.21-22.12,17.14-37.08,15.47-33.35,25.62-55.18a2.46,2.46,0,0,1,2.31-1.54h1.93a2.64,2.64,0,0,1,1.83.48,6.86,6.86,0,0,1,.86,1.06c.39.77,1.13,2.38,2.22,4.81s2.85,6.33,5.3,11.66,5.87,12.87,10.3,22.63,10.08,22.12,17,37.08Zm-44.3-40.84a1.28,1.28,0,0,0,.86-.57c.32-.39.36-.71.1-1l-19.45-42.95a1.26,1.26,0,0,0-2.12,0L1059,125.6a.78.78,0,0,0-.09,1,1.07,1.07,0,0,0,1.06.57Z" style="fill:#0069a5"/><path d="M1165.94,39.51a2.7,2.7,0,0,1,.77-1.83,2.45,2.45,0,0,1,1.92-.87h51.81A41.08,41.08,0,0,1,1236.62,40a42,42,0,0,1,13.2,8.76,41.45,41.45,0,0,1,9,13.1,39.65,39.65,0,0,1,3.28,16,36.67,36.67,0,0,1-7.8,23,50.3,50.3,0,0,1-20.32,15.51c-.77.26-1,.77-.58,1.54q9.83,18.3,15.22,28.41t8.08,14.73l3.47,6.36a3.09,3.09,0,0,1,.1,2.89,2.63,2.63,0,0,1-2.6,1.35H1237q-1.93,0-2.31-1.35l-3.28-6.36q-1.15-2.31-3.08-6.06t-4.72-9.25q-2.79-5.49-6.45-12.81t-8.48-17.14a1.11,1.11,0,0,0-1-.58H1190.2a1,1,0,0,0-1.15,1.16v49.69a2.49,2.49,0,0,1-1,1.83,2.93,2.93,0,0,1-1.93.87h-17.53a2.45,2.45,0,0,1-1.92-.87,2.7,2.7,0,0,1-.77-1.83Zm52.38,59.71a19.4,19.4,0,0,0,7.81-1.64,20.2,20.2,0,0,0,6.54-4.53,22.25,22.25,0,0,0,4.43-6.64,20.31,20.31,0,0,0,1.64-8.19,18.65,18.65,0,0,0-1.64-7.7,20.26,20.26,0,0,0-4.43-6.36,20.83,20.83,0,0,0-14.35-5.78H1190.4a1,1,0,0,0-1.16,1.16V98.06a1,1,0,0,0,1.16,1.16Z" style="fill:#0069a5"/><path d="M1276.88,157.38a7.13,7.13,0,0,1-1.54-2c-.26-.58-.07-1.44.57-2.6V153l6.94-12.13a3.69,3.69,0,0,1,2.5-1.83,3,3,0,0,1,2.51.48l.38.19a44.59,44.59,0,0,0,4.82,3.18q3.64,2.22,8.47,4.53a84.86,84.86,0,0,0,10,4,30.44,30.44,0,0,0,9.63,1.74,19.34,19.34,0,0,0,13.38-4.72,14.81,14.81,0,0,0,5.3-11.46q0-7.71-6.36-13.49t-19.06-10.78a113.57,113.57,0,0,1-13.29-6.36,53.81,53.81,0,0,1-11.56-8.57,39.64,39.64,0,0,1-8.09-11.36,34.19,34.19,0,0,1-3.08-14.93,36.39,36.39,0,0,1,2.6-13.1,34.35,34.35,0,0,1,7.9-12,39.82,39.82,0,0,1,13.38-8.57q8.09-3.27,19.07-2.89a73.31,73.31,0,0,1,13.87,2,82.32,82.32,0,0,1,11.84,3.85,93.41,93.41,0,0,1,9,4.24,48.35,48.35,0,0,1,5.2,3.17,3.45,3.45,0,0,1,1.45,2.32,3.49,3.49,0,0,1-.49,2.69q-1.73,2.7-3.75,5.59c-1.35,1.92-2.6,3.79-3.76,5.58a6.25,6.25,0,0,1-2.5,2.32,2.62,2.62,0,0,1-2.89-.2c-.39-.25-1.61-1-3.66-2.21s-4.5-2.51-7.32-3.85a79.27,79.27,0,0,0-9.15-3.66,28.6,28.6,0,0,0-9-1.64,20.89,20.89,0,0,0-7.8,1.35,18.56,18.56,0,0,0-5.68,3.46,14.34,14.34,0,0,0-3.46,4.72,12.41,12.41,0,0,0-1.16,5.11A15.33,15.33,0,0,0,1308,82q5.88,4.9,17.63,10.69,6.93,3.47,14.06,7.22a70.26,70.26,0,0,1,12.9,8.67,42.37,42.37,0,0,1,9.54,11.55,31.45,31.45,0,0,1,3.75,15.7,35.5,35.5,0,0,1-3.08,14.35,38,38,0,0,1-8.76,12.42,40.76,40.76,0,0,1-13.77,8.48,44,44,0,0,1-18.3,2.5,75.52,75.52,0,0,1-16.76-2.5,97.87,97.87,0,0,1-13.58-4.72,69,69,0,0,1-9.72-5.1,35,35,0,0,1-5.2-3.86Z" style="fill:#0069a5"/><path d="M441.08,248.08a13.19,13.19,0,0,1-1.49,6.47,12.19,12.19,0,0,1-4,4.35,17.65,17.65,0,0,1-5.91,2.44,32,32,0,0,1-7.12.77H401.77V212.46h18.68a36.1,36.1,0,0,1,7.5.7,16.81,16.81,0,0,1,5.58,2.17,9.81,9.81,0,0,1,3.48,3.74,11.43,11.43,0,0,1,1.2,5.41,13.24,13.24,0,0,1-.58,3.93,10.43,10.43,0,0,1-1.76,3.33,11.15,11.15,0,0,1-2.95,2.56,14.25,14.25,0,0,1-4.14,1.62,17.62,17.62,0,0,1,5.26,1.37,12.5,12.5,0,0,1,3.86,2.61,10.46,10.46,0,0,1,2.37,3.65A12.33,12.33,0,0,1,441.08,248.08Zm-10.83-22.57a6.24,6.24,0,0,0-2.53-5.5q-2.52-1.78-7.61-1.78H409.7v15.2h10.48a16.1,16.1,0,0,0,4.57-.57,8.5,8.5,0,0,0,3.15-1.6,6.35,6.35,0,0,0,1.79-2.49A9.1,9.1,0,0,0,430.25,225.51Zm2.9,22a7.26,7.26,0,0,0-3.44-6.49,11.76,11.76,0,0,0-3.81-1.5,22.57,22.57,0,0,0-4.8-.48H409.7v17.35h11.88a21.09,21.09,0,0,0,4.51-.46,10.79,10.79,0,0,0,3.68-1.5,7.43,7.43,0,0,0,2.48-2.74A8.79,8.79,0,0,0,433.15,247.46Z" style="fill:#333"/><path d="M487.24,262.11h-36V212.46h34.52v6.18h-26.6v15.09h24.48v6.05H459.14V256h28.1Z" style="fill:#333"/><path d="M535.18,257.55a25.28,25.28,0,0,1-4.74,2.72,30.15,30.15,0,0,1-5.74,1.84,30.5,30.5,0,0,1-6.62.68,26.17,26.17,0,0,1-10.45-1.91,19.84,19.84,0,0,1-7.38-5.34,22.64,22.64,0,0,1-4.39-8.15,35.25,35.25,0,0,1-1.45-10.34,35.62,35.62,0,0,1,1.44-10.49,21.15,21.15,0,0,1,4.33-7.95,19.23,19.23,0,0,1,7.28-5.06,27,27,0,0,1,10.21-1.77,27.43,27.43,0,0,1,7.46.92,20,20,0,0,1,5.63,2.51,17,17,0,0,1,4.1,3.77,24.4,24.4,0,0,1,2.85,4.68l-7.14,2.56a17.14,17.14,0,0,0-1.86-3.12,12.09,12.09,0,0,0-2.68-2.61,13,13,0,0,0-3.63-1.8,15.58,15.58,0,0,0-4.73-.66,15.89,15.89,0,0,0-6.87,1.36,12.71,12.71,0,0,0-4.74,3.84,16.45,16.45,0,0,0-2.77,6,32,32,0,0,0-.89,7.82,29.44,29.44,0,0,0,1,7.85,18.11,18.11,0,0,0,3,6.18,13.5,13.5,0,0,0,4.9,4,15.33,15.33,0,0,0,6.83,1.43,20,20,0,0,0,4.52-.47,21.82,21.82,0,0,0,3.76-1.22,16.7,16.7,0,0,0,3-1.65,15.39,15.39,0,0,0,2.21-1.85v-8.6H518.21v-5.91h20.63v17.45A23.48,23.48,0,0,1,535.18,257.55Z" style="fill:#333"/><path d="M586.3,262.11h-36V212.46H584.8v6.18H558.2v15.09h24.48v6.05H558.2V256h28.1Z" style="fill:#333"/><path d="M603.89,212.46v43.4h23.32v6.25H596V212.46Z" style="fill:#333"/><path d="M671.84,262.11h-36V212.46h34.52v6.18h-26.6v15.09h24.48v6.05H643.74V256h28.1Z" style="fill:#333"/><path d="M689.43,262.11H681.5V212.46h7.93Z" style="fill:#333"/><path d="M746.35,236.84a29.83,29.83,0,0,1-1.85,10.93,22,22,0,0,1-5.1,7.9,21.3,21.3,0,0,1-7.67,4.82,27.34,27.34,0,0,1-9.52,1.62H702.4V212.46H720a37.53,37.53,0,0,1,10.62,1.42,22.22,22.22,0,0,1,8.33,4.39,19.88,19.88,0,0,1,5.43,7.58A28.11,28.11,0,0,1,746.35,236.84Zm-7.79,0a22.25,22.25,0,0,0-1.36-8.24,14.65,14.65,0,0,0-3.84-5.64,15.51,15.51,0,0,0-5.91-3.23,26.5,26.5,0,0,0-7.57-1h-9.56v37.15h11.1a18.61,18.61,0,0,0,6.81-1.21,14.9,14.9,0,0,0,5.43-3.59,16.46,16.46,0,0,0,3.61-5.94A24.32,24.32,0,0,0,738.56,236.84Z" style="fill:#333"/><path d="M764.82,262.11H756.9V212.46h7.92Z" style="fill:#333"/><path d="M812.94,262.11l-28.28-40.84c.14,3.28.21,6.28.21,9v31.82H777.8V212.46h9.25l28.65,41.11c-.18-3.68-.27-6.92-.27-9.69V212.46h7v49.65Z" style="fill:#333"/><path d="M873.68,257.55a25.28,25.28,0,0,1-4.74,2.72,30.57,30.57,0,0,1-12.37,2.52,26.12,26.12,0,0,1-10.44-1.91,19.84,19.84,0,0,1-7.38-5.34,22.64,22.64,0,0,1-4.39-8.15,34.92,34.92,0,0,1-1.45-10.34,35.62,35.62,0,0,1,1.44-10.49,21.15,21.15,0,0,1,4.33-7.95,19.27,19.27,0,0,1,7.27-5.06,27.12,27.12,0,0,1,10.21-1.77,27.51,27.51,0,0,1,7.47.92,20.17,20.17,0,0,1,5.63,2.51,17.2,17.2,0,0,1,4.1,3.77,24.91,24.91,0,0,1,2.85,4.68l-7.14,2.56a17.14,17.14,0,0,0-1.86-3.12,12.09,12.09,0,0,0-2.68-2.61,13,13,0,0,0-3.64-1.8,15.49,15.49,0,0,0-4.73-.66,15.84,15.84,0,0,0-6.86,1.36,12.71,12.71,0,0,0-4.74,3.84,16.29,16.29,0,0,0-2.77,6,32,32,0,0,0-.89,7.82,29.44,29.44,0,0,0,1,7.85,18.11,18.11,0,0,0,3,6.18,13.42,13.42,0,0,0,4.9,4,15.28,15.28,0,0,0,6.82,1.43,20.07,20.07,0,0,0,4.53-.47,21.82,21.82,0,0,0,3.76-1.22,17,17,0,0,0,3-1.65,14.74,14.74,0,0,0,2.2-1.85v-8.6H856.71v-5.91h20.63v17.45A24,24,0,0,1,873.68,257.55Z" style="fill:#333"/><path d="M252.83,47.2a24.47,24.47,0,1,1-15.17-31.1,24.46,24.46,0,0,1,15.17,31.1" style="fill:#0069a5"/><path d="M149,36.7A25.73,25.73,0,1,1,133,4,25.74,25.74,0,0,1,149,36.7" style="fill:#333"/><path d="M181.36,235.74a302,302,0,0,1-62.77,5.56h0A371.7,371.7,0,0,1,66.63,237q-3.84-.58-7.65-1.26A441.83,441.83,0,0,0,118.41,249,433.46,433.46,0,0,0,179,254.17c9.61.11,18.91-.17,27.85-.8l.47-2Z" style="fill:#006ba5"/><path d="M164.16,58.73C155.28,68.06,144,74.58,129.4,76,92.47,79.67,73.15,62.65,17.24,37.24c-19.15-10.85-9.31,3.85,76.31,74.88,51.16,42.45,8.22,76.07,35.22,123.18A306.44,306.44,0,0,0,173.52,231L143,212.64l40.22-3.52L181,185.61c-6.58-24.48-13-55.55-15.25-89.07-1-11.11-1.53-24.53-1.55-37.81" style="fill:#333"/><path d="M196.71,205.11,221,203l17.58-76.12,13.33,31.42c.74-6.32,1.85-13.1,3.43-20.38l.07-.27c10.47-37.44,14.65-45.92,21.57-60,.79-1.6,1.62-3.27,2.5-5.07l.13-.25C288.78,56,291.52,46.65,292,42.49c-3,2.14-9,7.86-17.77,20.86-18.11,26.79-30.09,43.21-47.33,43.22a33.49,33.49,0,0,1-12.49-2.65c-19.62-8.3-24.24-30-32.63-69.28-1-4.77-2.09-9.82-3.26-15.14-.59-2.69-1.13-4.82-1.62-6.51-2.85,14.44-4.47,49.44-1.5,83.14,2.92,43.89,13.15,83.41,21.27,109" style="fill:#0069a5"/><path d="M301,196.91l6.08-10-17.5-20.83,26.27,6.45,11.74-19.25C320,133,302,114.85,273.94,99.73L270.8,110c10.93,15.45,14.85,32.25,12,51.31-1.83,12.2-7.55,23.4-16.47,33.32l2.16,5.09Z" style="fill:#0069a5"/><polygon points="311.08 209.32 261.35 213.67 241.85 167.72 230.62 216.36 180.89 220.71 223.68 246.42 212.45 295.06 250.13 262.31 292.91 288.01 273.4 242.07 311.08 209.32" style="fill:#333"/><polygon points="319.9 194.28 330.96 207.01 330.96 207 329.49 190.21 345 183.62 328.58 179.83 327.11 163.03 327.11 163.04 318.43 177.48 302.01 173.69 313.06 186.42 304.38 200.87 304.38 200.87 319.9 194.28" style="fill:#333"/></svg>